<?xml version="1.0" standalone="no"?>
<!DOCTYPE svg PUBLIC "-//W3C//DTD SVG 20010904//EN"
 "http://www.w3.org/TR/2001/REC-SVG-20010904/DTD/svg10.dtd">
<svg version="1.0" xmlns="http://www.w3.org/2000/svg"
 width="1000.000000pt" height="1000.000000pt" viewBox="0 0 1000.000000 1000.000000"
 preserveAspectRatio="xMidYMid meet">
<metadata>
Created by potrace 1.14, written by Peter Selinger 2001-2017
</metadata>
<g transform="translate(0.000000,1000.000000) scale(0.100000,-0.100000)"
fill="#000000" stroke="none">
<path d="M0 5000 l0 -5000 5000 0 5000 0 0 5000 0 5000 -5000 0 -5000 0 0
-5000z m4140 2321 c478 -84 843 -318 1122 -721 l17 -25 33 40 c60 74 222 236
298 298 452 367 1082 515 1680 396 649 -129 1133 -593 1294 -1239 62 -251 59
-162 63 -1922 l4 -1608 -531 0 -530 0 0 1428 c0 820 -4 1476 -10 1542 -13 156
-40 254 -104 385 -95 193 -230 327 -421 421 -163 79 -252 99 -455 98 -145 -1
-177 -4 -262 -27 -175 -47 -326 -129 -455 -250 -93 -87 -156 -175 -218 -302
-60 -123 -90 -228 -105 -367 -6 -56 -10 -653 -10 -1510 l0 -1418 -530 0 -530
0 0 1504 c0 1300 -2 1515 -15 1583 -94 497 -503 815 -1014 790 -275 -13 -516
-122 -708 -320 -171 -176 -265 -376 -292 -620 -7 -64 -11 -575 -11 -1517 l0
-1420 -525 0 -525 0 0 2360 0 2360 479 0 478 0 6 -52 c3 -29 14 -141 23 -248
10 -107 19 -197 21 -199 1 -2 40 32 85 75 293 280 675 456 1089 503 132 15
425 6 559 -18z"/>
</g>
</svg>
